<svg version="1.2" xmlns="http://www.w3.org/2000/svg" viewBox="0 0 300 300" width="300" height="300">
	<style>
		.s0 { fill: #669c24 } 
		.s1 { fill: #ffffff } 
	</style>
	<path fill-rule="evenodd" class="s0" d="m40 0h220c22.09 0 40 17.91 40 40v220c0 22.09-17.91 40-40 40h-220c-22.09 0-40-17.91-40-40v-220c0-22.09 17.91-40 40-40z"/>
	<path id="     MS   " class="s1" d="m81.3 211h-21.51v-124.11h30.46l16.98 80.19 17.25-80.19h30.19v124.11h-21.44v-92.73l-17.67 92.73h-16.58l-17.68-92.73zm121.95 1.54q-11.05 0-19.04-3.01-7.77-3.28-11.97-11.13-4.1-8.18-4.1-22.69v-7.44q6.35 0 12.5 0.1 6.54-0.1 12.89-0.1v9.44q0 7.81 1.18 12.08 1.34 4.07 3.57 5.67 2.33 1.49 5.4 1.49 4.85 0 7.62-3.38 2.93-3.63 2.93-13.58 0-7.85-2.51-11.62-2.29-4-7.56-6.3-5.2-2.57-13.54-6.01-7.3-3.23-12.29-7.64-4.63-4.46-7.14-11.13-2.13-6.73-2.13-16.32 0-12.22 3.18-19.59 3.28-7.78 10.92-11.13 7.69-3.65 20.79-3.65 16.9 0 25.62 7.43 8.99 7.21 8.99 21.61v14.95q-6.06 0-12.14 0.19-5.97-0.19-12.09-0.19v-7.66q0-9.28-2.4-12.94-2.06-4.08-7.69-4.08-5.61 0-7.85 3.45-2.23 3.4-2.23 10.83 0 7.03 2.65 11.01 2.84 3.72 7.14 5.88 4.62 1.92 9.56 3.8 9.38 3.5 15.01 7.33 5.99 3.65 8.61 10.08 2.84 6.33 2.84 18.2 0 13.47-4.52 21.49-4.48 7.83-12.81 11.34-8.12 3.22-19.39 3.22z"/>
</svg>